<?xml version="1.0" encoding="UTF-8" standalone="no"?>
<!DOCTYPE svg PUBLIC "-//W3C//DTD SVG 1.1//EN"
 "http://www.w3.org/Graphics/SVG/1.1/DTD/svg11.dtd">
<!-- Generated by graphviz version 2.43.0 (0)
 -->
<!-- Title: G Pages: 1 -->
<svg width="654pt" height="515pt"
 viewBox="0.00 0.00 654.00 515.00" xmlns="http://www.w3.org/2000/svg" xmlns:xlink="http://www.w3.org/1999/xlink">
<g id="graph0" class="graph" transform="scale(1 1) rotate(0) translate(4 511)">
<title>G</title>
<polygon fill="white" stroke="transparent" points="-4,4 -4,-511 650,-511 650,4 -4,4"/>
<g id="clust1" class="cluster">
<title>cluster_root</title>
<g id="a_clust1"><a xlink:title="eventq_index=0&#10;full_system=false&#10;sim_quantum=0&#10;time_sync_enable=false&#10;time_sync_period=100000000000&#10;time_sync_spin_threshold=100000000">
<path fill="#bab6ae" stroke="#000000" d="M20,-8C20,-8 626,-8 626,-8 632,-8 638,-14 638,-20 638,-20 638,-487 638,-487 638,-493 632,-499 626,-499 626,-499 20,-499 20,-499 14,-499 8,-493 8,-487 8,-487 8,-20 8,-20 8,-14 14,-8 20,-8"/>
<text text-anchor="middle" x="323" y="-483.8" font-family="Arial" font-size="14.00" fill="#000000">root </text>
<text text-anchor="middle" x="323" y="-468.8" font-family="Arial" font-size="14.00" fill="#000000">: Root</text>
</a>
</g>
</g>
<g id="clust2" class="cluster">
<title>cluster_system</title>
<g id="a_clust2"><a xlink:title="byte_order=little&#10;cache_line_size=64&#10;eventq_index=0&#10;exit_on_work_items=false&#10;init_param=0&#10;m5ops_base=0&#10;mem_mode=atomic&#10;mem_ranges=0:536870912&#10;memories=system.mem_ctrls.dram&#10;mmap_using_noreserve=false&#10;multi_thread=false&#10;&#10;um_work_ids=16&#10;&#13;eadfile=&#10;&#13;edirect_paths=system.redirect_paths0 system.redirect_paths1 system.redirect_paths2&#10;shared_backstore=&#10;symbolfile=&#10;thermal_components=&#10;thermal_model=Null&#10;work_begin_ckpt_count=0&#10;work_begin_cpu_id_exit=&#45;1&#10;work_begin_exit_count=0&#10;work_cpus_ckpt_count=0&#10;work_end_ckpt_count=0&#10;work_end_exit_count=0&#10;work_item_id=&#45;1&#10;workload=Null">
<path fill="#e4e7eb" stroke="#000000" d="M28,-16C28,-16 618,-16 618,-16 624,-16 630,-22 630,-28 630,-28 630,-441 630,-441 630,-447 624,-453 618,-453 618,-453 28,-453 28,-453 22,-453 16,-447 16,-441 16,-441 16,-28 16,-28 16,-22 22,-16 28,-16"/>
<text text-anchor="middle" x="323" y="-437.8" font-family="Arial" font-size="14.00" fill="#000000">system </text>
<text text-anchor="middle" x="323" y="-422.8" font-family="Arial" font-size="14.00" fill="#000000">: System</text>
</a>
</g>
</g>
<g id="clust4" class="cluster">
<title>cluster_system_cpu</title>
<g id="a_clust4"><a xlink:title="branchPred=Null&#10;checker=Null&#10;clk_domain=system.cpu_clk_domain&#10;cpu_id=0&#10;do_checkpoint_insts=true&#10;do_statistics_insts=true&#10;dtb=system.cpu.dtb&#10;eventq_index=0&#10;function_trace=false&#10;function_trace_start=0&#10;interrupts=system.cpu.interrupts&#10;isa=system.cpu.isa&#10;itb=system.cpu.itb&#10;max_insts_all_threads=0&#10;max_insts_any_thread=0&#10;&#10;umThreads=1&#10;power_gating_on_idle=false&#10;power_model=&#10;power_state=system.cpu.power_state&#10;progress_interval=0&#10;pwr_gating_latency=300&#10;simpoint_start_insts=&#10;simulate_data_stalls=false&#10;simulate_inst_stalls=false&#10;socket_id=0&#10;switched_out=false&#10;syscallRetryLatency=10000&#10;system=system&#10;tracer=system.cpu.tracer&#10;wait_for_remote_gdb=false&#10;width=1&#10;workload=system.cpu.workload">
<path fill="#bbc6d9" stroke="#000000" d="M36,-24C36,-24 518,-24 518,-24 524,-24 530,-30 530,-36 530,-36 530,-211 530,-211 530,-217 524,-223 518,-223 518,-223 36,-223 36,-223 30,-223 24,-217 24,-211 24,-211 24,-36 24,-36 24,-30 30,-24 36,-24"/>
<text text-anchor="middle" x="277" y="-207.8" font-family="Arial" font-size="14.00" fill="#000000">cpu </text>
<text text-anchor="middle" x="277" y="-192.8" font-family="Arial" font-size="14.00" fill="#000000">: AtomicSimpleCPU</text>
</a>
</g>
</g>
<g id="clust5" class="cluster">
<title>cluster_system_cpu_dtb</title>
<g id="a_clust5"><a xlink:title="eventq_index=0&#10;is_stage2=false&#10;size=64&#10;sys=system&#10;walker=system.cpu.dtb.walker">
<path fill="#bab6ae" stroke="#000000" d="M395,-32C395,-32 510,-32 510,-32 516,-32 522,-38 522,-44 522,-44 522,-165 522,-165 522,-171 516,-177 510,-177 510,-177 395,-177 395,-177 389,-177 383,-171 383,-165 383,-165 383,-44 383,-44 383,-38 389,-32 395,-32"/>
<text text-anchor="middle" x="452.5" y="-161.8" font-family="Arial" font-size="14.00" fill="#000000">dtb </text>
<text text-anchor="middle" x="452.5" y="-146.8" font-family="Arial" font-size="14.00" fill="#000000">: ArmDTB</text>
</a>
</g>
</g>
<g id="clust10" class="cluster">
<title>cluster_system_cpu_dtb_walker</title>
<g id="a_clust10"><a xlink:title="clk_domain=system.cpu_clk_domain&#10;eventq_index=0&#10;is_stage2=false&#10;&#10;um_squash_per_cycle=2&#10;power_model=&#10;power_state=system.cpu.dtb.walker.power_state&#10;sys=system">
<path fill="#9f9c95" stroke="#000000" d="M403,-40C403,-40 502,-40 502,-40 508,-40 514,-46 514,-52 514,-52 514,-119 514,-119 514,-125 508,-131 502,-131 502,-131 403,-131 403,-131 397,-131 391,-125 391,-119 391,-119 391,-52 391,-52 391,-46 397,-40 403,-40"/>
<text text-anchor="middle" x="452.5" y="-115.8" font-family="Arial" font-size="14.00" fill="#000000">walker </text>
<text text-anchor="middle" x="452.5" y="-100.8" font-family="Arial" font-size="14.00" fill="#000000">: ArmTableWalker</text>
</a>
</g>
</g>
<g id="clust12" class="cluster">
<title>cluster_system_cpu_itb</title>
<g id="a_clust12"><a xlink:title="eventq_index=0&#10;is_stage2=false&#10;size=64&#10;sys=system&#10;walker=system.cpu.itb.walker">
<path fill="#bab6ae" stroke="#000000" d="M248,-32C248,-32 363,-32 363,-32 369,-32 375,-38 375,-44 375,-44 375,-165 375,-165 375,-171 369,-177 363,-177 363,-177 248,-177 248,-177 242,-177 236,-171 236,-165 236,-165 236,-44 236,-44 236,-38 242,-32 248,-32"/>
<text text-anchor="middle" x="305.5" y="-161.8" font-family="Arial" font-size="14.00" fill="#000000">itb </text>
<text text-anchor="middle" x="305.5" y="-146.8" font-family="Arial" font-size="14.00" fill="#000000">: ArmITB</text>
</a>
</g>
</g>
<g id="clust17" class="cluster">
<title>cluster_system_cpu_itb_walker</title>
<g id="a_clust17"><a xlink:title="clk_domain=system.cpu_clk_domain&#10;eventq_index=0&#10;is_stage2=false&#10;&#10;um_squash_per_cycle=2&#10;power_model=&#10;power_state=system.cpu.itb.walker.power_state&#10;sys=system">
<path fill="#9f9c95" stroke="#000000" d="M256,-40C256,-40 355,-40 355,-40 361,-40 367,-46 367,-52 367,-52 367,-119 367,-119 367,-125 361,-131 355,-131 355,-131 256,-131 256,-131 250,-131 244,-125 244,-119 244,-119 244,-52 244,-52 244,-46 250,-40 256,-40"/>
<text text-anchor="middle" x="305.5" y="-115.8" font-family="Arial" font-size="14.00" fill="#000000">walker </text>
<text text-anchor="middle" x="305.5" y="-100.8" font-family="Arial" font-size="14.00" fill="#000000">: ArmTableWalker</text>
</a>
</g>
</g>
<g id="clust28" class="cluster">
<title>cluster_system_membus</title>
<g id="a_clust28"><a xlink:title="clk_domain=system.clk_domain&#10;eventq_index=0&#10;forward_latency=4&#10;frontend_latency=3&#10;header_latency=1&#10;max_outstanding_snoops=512&#10;max_routing_table_size=512&#10;point_of_coherency=true&#10;point_of_unification=true&#10;power_model=&#10;power_state=system.membus.power_state&#10;&#13;esponse_latency=2&#10;snoop_filter=system.membus.snoop_filter&#10;snoop_response_latency=4&#10;system=system&#10;use_default_range=false&#10;width=16">
<path fill="#6f798c" stroke="#000000" d="M255,-231C255,-231 491,-231 491,-231 497,-231 503,-237 503,-243 503,-243 503,-310 503,-310 503,-316 497,-322 491,-322 491,-322 255,-322 255,-322 249,-322 243,-316 243,-310 243,-310 243,-243 243,-243 243,-237 249,-231 255,-231"/>
<text text-anchor="middle" x="373" y="-306.8" font-family="Arial" font-size="14.00" fill="#000000">membus </text>
<text text-anchor="middle" x="373" y="-291.8" font-family="Arial" font-size="14.00" fill="#000000">: SystemXBar</text>
</a>
</g>
</g>
<g id="clust31" class="cluster">
<title>cluster_system_mem_ctrls</title>
<g id="a_clust31"><a xlink:title="clk_domain=system.clk_domain&#10;command_window=10000&#10;dram=system.mem_ctrls.dram&#10;eventq_index=0&#10;mem_sched_policy=frfcfs&#10;min_writes_per_switch=16&#10;&#10;vm=Null&#10;power_model=&#10;power_state=system.mem_ctrls.power_state&#10;qos_policy=Null&#10;qos_priorities=1&#10;qos_priority_escalation=false&#10;qos_q_policy=fifo&#10;qos_requestors= &#160;&#160;&#160;&#160;&#160;&#160;&#160;&#160;&#160;&#160;&#160;&#160;&#160;&#160;&#10;qos_syncro_scheduler=false&#10;qos_turnaround_policy=Null&#10;static_backend_latency=10000&#10;static_frontend_latency=10000&#10;system=system&#10;write_high_thresh_perc=85&#10;write_low_thresh_perc=50">
<path fill="#bab6ae" stroke="#000000" d="M550,-40C550,-40 610,-40 610,-40 616,-40 622,-46 622,-52 622,-52 622,-119 622,-119 622,-125 616,-131 610,-131 610,-131 550,-131 550,-131 544,-131 538,-125 538,-119 538,-119 538,-52 538,-52 538,-46 544,-40 550,-40"/>
<text text-anchor="middle" x="580" y="-115.8" font-family="Arial" font-size="14.00" fill="#000000">mem_ctrls </text>
<text text-anchor="middle" x="580" y="-100.8" font-family="Arial" font-size="14.00" fill="#000000">: MemCtrl</text>
</a>
</g>
</g>
<!-- system_system_port -->
<g id="node1" class="node">
<title>system_system_port</title>
<path fill="#b6b8bc" stroke="#000000" d="M271.5,-370.5C271.5,-370.5 338.5,-370.5 338.5,-370.5 344.5,-370.5 350.5,-376.5 350.5,-382.5 350.5,-382.5 350.5,-394.5 350.5,-394.5 350.5,-400.5 344.5,-406.5 338.5,-406.5 338.5,-406.5 271.5,-406.5 271.5,-406.5 265.5,-406.5 259.5,-400.5 259.5,-394.5 259.5,-394.5 259.5,-382.5 259.5,-382.5 259.5,-376.5 265.5,-370.5 271.5,-370.5"/>
<text text-anchor="middle" x="305" y="-384.8" font-family="Arial" font-size="14.00" fill="#000000">system_port</text>
</g>
<!-- system_membus_cpu_side_ports -->
<g id="node6" class="node">
<title>system_membus_cpu_side_ports</title>
<path fill="#586070" stroke="#000000" d="M263,-239.5C263,-239.5 347,-239.5 347,-239.5 353,-239.5 359,-245.5 359,-251.5 359,-251.5 359,-263.5 359,-263.5 359,-269.5 353,-275.5 347,-275.5 347,-275.5 263,-275.5 263,-275.5 257,-275.5 251,-269.5 251,-263.5 251,-263.5 251,-251.5 251,-251.5 251,-245.5 257,-239.5 263,-239.5"/>
<text text-anchor="middle" x="305" y="-253.8" font-family="Arial" font-size="14.00" fill="#000000">cpu_side_ports</text>
</g>
<!-- system_system_port&#45;&gt;system_membus_cpu_side_ports -->
<g id="edge1" class="edge">
<title>system_system_port&#45;&gt;system_membus_cpu_side_ports</title>
<path fill="none" stroke="black" d="M305,-370.37C305,-348.78 305,-311.41 305,-285.85"/>
<polygon fill="black" stroke="black" points="308.5,-285.7 305,-275.7 301.5,-285.7 308.5,-285.7"/>
</g>
<!-- system_cpu_icache_port -->
<g id="node2" class="node">
<title>system_cpu_icache_port</title>
<path fill="#959ead" stroke="#000000" d="M154,-48.5C154,-48.5 216,-48.5 216,-48.5 222,-48.5 228,-54.5 228,-60.5 228,-60.5 228,-72.5 228,-72.5 228,-78.5 222,-84.5 216,-84.5 216,-84.5 154,-84.5 154,-84.5 148,-84.5 142,-78.5 142,-72.5 142,-72.5 142,-60.5 142,-60.5 142,-54.5 148,-48.5 154,-48.5"/>
<text text-anchor="middle" x="185" y="-62.8" font-family="Arial" font-size="14.00" fill="#000000">icache_port</text>
</g>
<!-- system_cpu_dcache_port -->
<g id="node3" class="node">
<title>system_cpu_dcache_port</title>
<path fill="#959ead" stroke="#000000" d="M44.5,-48.5C44.5,-48.5 111.5,-48.5 111.5,-48.5 117.5,-48.5 123.5,-54.5 123.5,-60.5 123.5,-60.5 123.5,-72.5 123.5,-72.5 123.5,-78.5 117.5,-84.5 111.5,-84.5 111.5,-84.5 44.5,-84.5 44.5,-84.5 38.5,-84.5 32.5,-78.5 32.5,-72.5 32.5,-72.5 32.5,-60.5 32.5,-60.5 32.5,-54.5 38.5,-48.5 44.5,-48.5"/>
<text text-anchor="middle" x="78" y="-62.8" font-family="Arial" font-size="14.00" fill="#000000">dcache_port</text>
</g>
<!-- system_cpu_dtb_walker_port -->
<g id="node4" class="node">
<title>system_cpu_dtb_walker_port</title>
<path fill="#7f7c77" stroke="#000000" d="M411,-48.5C411,-48.5 441,-48.5 441,-48.5 447,-48.5 453,-54.5 453,-60.5 453,-60.5 453,-72.5 453,-72.5 453,-78.5 447,-84.5 441,-84.5 441,-84.5 411,-84.5 411,-84.5 405,-84.5 399,-78.5 399,-72.5 399,-72.5 399,-60.5 399,-60.5 399,-54.5 405,-48.5 411,-48.5"/>
<text text-anchor="middle" x="426" y="-62.8" font-family="Arial" font-size="14.00" fill="#000000">port</text>
</g>
<!-- system_cpu_itb_walker_port -->
<g id="node5" class="node">
<title>system_cpu_itb_walker_port</title>
<path fill="#7f7c77" stroke="#000000" d="M290,-48.5C290,-48.5 320,-48.5 320,-48.5 326,-48.5 332,-54.5 332,-60.5 332,-60.5 332,-72.5 332,-72.5 332,-78.5 326,-84.5 320,-84.5 320,-84.5 290,-84.5 290,-84.5 284,-84.5 278,-78.5 278,-72.5 278,-72.5 278,-60.5 278,-60.5 278,-54.5 284,-48.5 290,-48.5"/>
<text text-anchor="middle" x="305" y="-62.8" font-family="Arial" font-size="14.00" fill="#000000">port</text>
</g>
<!-- system_membus_cpu_side_ports&#45;&gt;system_cpu_icache_port -->
<g id="edge2" class="edge">
<title>system_membus_cpu_side_ports&#45;&gt;system_cpu_icache_port</title>
<path fill="none" stroke="black" d="M251.85,-233.7C247.5,-230.52 243.46,-226.96 240,-223 204.04,-181.79 191.12,-115.51 186.88,-84.51"/>
<polygon fill="black" stroke="black" points="250.22,-236.82 260.5,-239.36 254.05,-230.96 250.22,-236.82"/>
</g>
<!-- system_membus_cpu_side_ports&#45;&gt;system_cpu_dcache_port -->
<g id="edge3" class="edge">
<title>system_membus_cpu_side_ports&#45;&gt;system_cpu_dcache_port</title>
<path fill="none" stroke="black" d="M240.54,-250.61C198.7,-245.56 149.07,-236.86 133,-223 91.15,-186.91 81.14,-116.85 78.75,-84.56"/>
<polygon fill="black" stroke="black" points="240.37,-254.11 250.71,-251.79 241.18,-247.16 240.37,-254.11"/>
</g>
<!-- system_membus_cpu_side_ports&#45;&gt;system_cpu_dtb_walker_port -->
<g id="edge5" class="edge">
<title>system_membus_cpu_side_ports&#45;&gt;system_cpu_dtb_walker_port</title>
<path fill="none" stroke="black" d="M358.63,-234.03C363.17,-230.77 367.4,-227.1 371,-223 407.09,-181.9 419.94,-115.57 424.14,-84.53"/>
<polygon fill="black" stroke="black" points="356.7,-231.11 350.18,-239.46 360.48,-237 356.7,-231.11"/>
</g>
<!-- system_membus_cpu_side_ports&#45;&gt;system_cpu_itb_walker_port -->
<g id="edge4" class="edge">
<title>system_membus_cpu_side_ports&#45;&gt;system_cpu_itb_walker_port</title>
<path fill="none" stroke="black" d="M305,-229.16C305,-189.61 305,-117.59 305,-84.7"/>
<polygon fill="black" stroke="black" points="301.5,-229.39 305,-239.39 308.5,-229.39 301.5,-229.39"/>
</g>
<!-- system_membus_mem_side_ports -->
<g id="node7" class="node">
<title>system_membus_mem_side_ports</title>
<path fill="#586070" stroke="#000000" d="M389,-239.5C389,-239.5 483,-239.5 483,-239.5 489,-239.5 495,-245.5 495,-251.5 495,-251.5 495,-263.5 495,-263.5 495,-269.5 489,-275.5 483,-275.5 483,-275.5 389,-275.5 389,-275.5 383,-275.5 377,-269.5 377,-263.5 377,-263.5 377,-251.5 377,-251.5 377,-245.5 383,-239.5 389,-239.5"/>
<text text-anchor="middle" x="436" y="-253.8" font-family="Arial" font-size="14.00" fill="#000000">mem_side_ports</text>
</g>
<!-- system_mem_ctrls_port -->
<g id="node8" class="node">
<title>system_mem_ctrls_port</title>
<path fill="#94918b" stroke="#000000" d="M558,-48.5C558,-48.5 588,-48.5 588,-48.5 594,-48.5 600,-54.5 600,-60.5 600,-60.5 600,-72.5 600,-72.5 600,-78.5 594,-84.5 588,-84.5 588,-84.5 558,-84.5 558,-84.5 552,-84.5 546,-78.5 546,-72.5 546,-72.5 546,-60.5 546,-60.5 546,-54.5 552,-48.5 558,-48.5"/>
<text text-anchor="middle" x="573" y="-62.8" font-family="Arial" font-size="14.00" fill="#000000">port</text>
</g>
<!-- system_membus_mem_side_ports&#45;&gt;system_mem_ctrls_port -->
<g id="edge6" class="edge">
<title>system_membus_mem_side_ports&#45;&gt;system_mem_ctrls_port</title>
<path fill="none" stroke="black" d="M495.4,-239.4C503.75,-235.07 511.63,-229.68 518,-223 552.05,-187.28 565.18,-129.17 570.13,-95.02"/>
<polygon fill="black" stroke="black" points="573.63,-95.2 571.46,-84.83 566.69,-94.29 573.63,-95.2"/>
</g>
</g>
</svg>
