<?xml version="1.0" encoding="UTF-8" standalone="no"?>
<!DOCTYPE svg PUBLIC "-//W3C//DTD SVG 1.1//EN"
 "http://www.w3.org/Graphics/SVG/1.1/DTD/svg11.dtd">
<!-- Generated by graphviz version 2.43.0 (0)
 -->
<!-- Title: G Pages: 1 -->
<svg width="336pt" height="300pt"
 viewBox="0.00 0.00 335.90 300.01" xmlns="http://www.w3.org/2000/svg" xmlns:xlink="http://www.w3.org/1999/xlink">
<g id="graph0" class="graph" transform="scale(1 1) rotate(0) translate(4 296.01)">
<title>G</title>
<polygon fill="white" stroke="transparent" points="-4,4 -4,-296.01 331.9,-296.01 331.9,4 -4,4"/>
<!-- system.ruby.network.routers0 -->
<g id="node1" class="node">
<title>system.ruby.network.routers0</title>
<path fill="#cce6fc" stroke="#000000" d="M225.1,-51.8C225.1,-51.8 255.1,-51.8 255.1,-51.8 261.1,-51.8 267.1,-57.8 267.1,-63.8 267.1,-63.8 267.1,-75.8 267.1,-75.8 267.1,-81.8 261.1,-87.8 255.1,-87.8 255.1,-87.8 225.1,-87.8 225.1,-87.8 219.1,-87.8 213.1,-81.8 213.1,-75.8 213.1,-75.8 213.1,-63.8 213.1,-63.8 213.1,-57.8 219.1,-51.8 225.1,-51.8"/>
<text text-anchor="middle" x="240.1" y="-66.1" font-family="Arial" font-size="14.00" fill="#000000">R 0</text>
</g>
<!-- system.ruby.network.routers3 -->
<g id="node4" class="node">
<title>system.ruby.network.routers3</title>
<path fill="#cce6fc" stroke="#000000" d="M167.81,-106.48C167.81,-106.48 197.81,-106.48 197.81,-106.48 203.81,-106.48 209.81,-112.48 209.81,-118.48 209.81,-118.48 209.81,-130.48 209.81,-130.48 209.81,-136.48 203.81,-142.48 197.81,-142.48 197.81,-142.48 167.81,-142.48 167.81,-142.48 161.81,-142.48 155.81,-136.48 155.81,-130.48 155.81,-130.48 155.81,-118.48 155.81,-118.48 155.81,-112.48 161.81,-106.48 167.81,-106.48"/>
<text text-anchor="middle" x="182.81" y="-120.78" font-family="Arial" font-size="14.00" fill="#000000">R 3</text>
</g>
<!-- system.ruby.network.routers0&#45;&#45;system.ruby.network.routers3 -->
<g id="edge1" class="edge">
<title>system.ruby.network.routers0&#45;&#45;system.ruby.network.routers3</title>
<path fill="none" stroke="black" d="M212.89,-86.62C205.92,-92.85 198.85,-99.9 193.27,-106.25"/>
</g>
<!-- system.ruby.network.routers1 -->
<g id="node2" class="node">
<title>system.ruby.network.routers1</title>
<path fill="#cce6fc" stroke="#000000" d="M186.46,-183.42C186.46,-183.42 216.46,-183.42 216.46,-183.42 222.46,-183.42 228.46,-189.42 228.46,-195.42 228.46,-195.42 228.46,-207.42 228.46,-207.42 228.46,-213.42 222.46,-219.42 216.46,-219.42 216.46,-219.42 186.46,-219.42 186.46,-219.42 180.46,-219.42 174.46,-213.42 174.46,-207.42 174.46,-207.42 174.46,-195.42 174.46,-195.42 174.46,-189.42 180.46,-183.42 186.46,-183.42"/>
<text text-anchor="middle" x="201.46" y="-197.72" font-family="Arial" font-size="14.00" fill="#000000">R 1</text>
</g>
<!-- system.ruby.network.routers1&#45;&#45;system.ruby.network.routers3 -->
<g id="edge2" class="edge">
<title>system.ruby.network.routers1&#45;&#45;system.ruby.network.routers3</title>
<path fill="none" stroke="black" d="M202.93,-183.39C201.32,-171.14 197.52,-155.02 193.38,-142.73"/>
</g>
<!-- system.ruby.network.routers2 -->
<g id="node3" class="node">
<title>system.ruby.network.routers2</title>
<path fill="#cce6fc" stroke="#000000" d="M91.77,-84.41C91.77,-84.41 121.77,-84.41 121.77,-84.41 127.77,-84.41 133.77,-90.41 133.77,-96.41 133.77,-96.41 133.77,-108.41 133.77,-108.41 133.77,-114.41 127.77,-120.41 121.77,-120.41 121.77,-120.41 91.77,-120.41 91.77,-120.41 85.77,-120.41 79.77,-114.41 79.77,-108.41 79.77,-108.41 79.77,-96.41 79.77,-96.41 79.77,-90.41 85.77,-84.41 91.77,-84.41"/>
<text text-anchor="middle" x="106.77" y="-98.71" font-family="Arial" font-size="14.00" fill="#000000">R 2</text>
</g>
<!-- system.ruby.network.routers2&#45;&#45;system.ruby.network.routers3 -->
<g id="edge3" class="edge">
<title>system.ruby.network.routers2&#45;&#45;system.ruby.network.routers3</title>
<path fill="none" stroke="black" d="M133.79,-110.25C140.88,-112.31 148.52,-114.52 155.62,-116.58"/>
</g>
<!-- system.ruby.network.routers3&#45;&#45;system.ruby.network.routers0 -->
<g id="edge4" class="edge">
<title>system.ruby.network.routers3&#45;&#45;system.ruby.network.routers0</title>
<path fill="none" stroke="black" d="M210.02,-107.65C216.99,-101.43 224.06,-94.38 229.64,-88.03"/>
</g>
<!-- system.ruby.network.routers3&#45;&#45;system.ruby.network.routers1 -->
<g id="edge5" class="edge">
<title>system.ruby.network.routers3&#45;&#45;system.ruby.network.routers1</title>
<path fill="none" stroke="black" d="M181.34,-142.51C182.94,-154.75 186.75,-170.88 190.89,-183.17"/>
</g>
<!-- system.ruby.l1_cntrl0 -->
<g id="node5" class="node">
<title>system.ruby.l1_cntrl0</title>
<path fill="#e5bcd0" stroke="#000000" d="M271.9,-0.5C271.9,-0.5 315.9,-0.5 315.9,-0.5 321.9,-0.5 327.9,-6.5 327.9,-12.5 327.9,-12.5 327.9,-24.5 327.9,-24.5 327.9,-30.5 321.9,-36.5 315.9,-36.5 315.9,-36.5 271.9,-36.5 271.9,-36.5 265.9,-36.5 259.9,-30.5 259.9,-24.5 259.9,-24.5 259.9,-12.5 259.9,-12.5 259.9,-6.5 265.9,-0.5 271.9,-0.5"/>
<text text-anchor="middle" x="293.9" y="-14.8" font-family="Arial" font-size="14.00" fill="#000000">l1_cntrl0</text>
</g>
<!-- system.ruby.l1_cntrl0&#45;&#45;system.ruby.network.routers0 -->
<g id="edge6" class="edge">
<title>system.ruby.l1_cntrl0&#45;&#45;system.ruby.network.routers0</title>
<path fill="none" stroke="black" d="M274.78,-36.73C269.71,-41.57 264.23,-46.79 259.16,-51.63"/>
</g>
<!-- system.ruby.l2_cntrl0 -->
<g id="node6" class="node">
<title>system.ruby.l2_cntrl0</title>
<path fill="#e5bcd0" stroke="#000000" d="M197.56,-255.51C197.56,-255.51 241.56,-255.51 241.56,-255.51 247.56,-255.51 253.56,-261.51 253.56,-267.51 253.56,-267.51 253.56,-279.51 253.56,-279.51 253.56,-285.51 247.56,-291.51 241.56,-291.51 241.56,-291.51 197.56,-291.51 197.56,-291.51 191.56,-291.51 185.56,-285.51 185.56,-279.51 185.56,-279.51 185.56,-267.51 185.56,-267.51 185.56,-261.51 191.56,-255.51 197.56,-255.51"/>
<text text-anchor="middle" x="219.56" y="-269.81" font-family="Arial" font-size="14.00" fill="#000000">l2_cntrl0</text>
</g>
<!-- system.ruby.l2_cntrl0&#45;&#45;system.ruby.network.routers1 -->
<g id="edge7" class="edge">
<title>system.ruby.l2_cntrl0&#45;&#45;system.ruby.network.routers1</title>
<path fill="none" stroke="black" d="M214.99,-255.32C212.25,-244.39 208.77,-230.53 206.02,-219.6"/>
</g>
<!-- system.ruby.dir_cntrl0 -->
<g id="node7" class="node">
<title>system.ruby.dir_cntrl0</title>
<path fill="#e5bcd0" stroke="#000000" d="M12,-61.6C12,-61.6 60,-61.6 60,-61.6 66,-61.6 72,-67.6 72,-73.6 72,-73.6 72,-85.6 72,-85.6 72,-91.6 66,-97.6 60,-97.6 60,-97.6 12,-97.6 12,-97.6 6,-97.6 0,-91.6 0,-85.6 0,-85.6 0,-73.6 0,-73.6 0,-67.6 6,-61.6 12,-61.6"/>
<text text-anchor="middle" x="36" y="-75.9" font-family="Arial" font-size="14.00" fill="#000000">dir_cntrl0</text>
</g>
<!-- system.ruby.dir_cntrl0&#45;&#45;system.ruby.network.routers2 -->
<g id="edge8" class="edge">
<title>system.ruby.dir_cntrl0&#45;&#45;system.ruby.network.routers2</title>
<path fill="none" stroke="black" d="M72.21,-91.27C74.66,-92.06 77.1,-92.85 79.5,-93.62"/>
</g>
</g>
</svg>
