<?xml version="1.0" encoding="UTF-8" standalone="no"?>
<!DOCTYPE svg PUBLIC "-//W3C//DTD SVG 1.1//EN"
 "http://www.w3.org/Graphics/SVG/1.1/DTD/svg11.dtd">
<!-- Generated by graphviz version 2.43.0 (0)
 -->
<!-- Title: G Pages: 1 -->
<svg width="2681pt" height="545pt"
 viewBox="0.00 0.00 2681.00 545.00" xmlns="http://www.w3.org/2000/svg" xmlns:xlink="http://www.w3.org/1999/xlink">
<g id="graph0" class="graph" transform="scale(1 1) rotate(0) translate(4 541)">
<title>G</title>
<polygon fill="white" stroke="transparent" points="-4,4 -4,-541 2677,-541 2677,4 -4,4"/>
<g id="clust1" class="cluster">
<title>cluster_root</title>
<g id="a_clust1"><a xlink:title="eventq_index=0&#10;full_system=false&#10;sim_quantum=0&#10;time_sync_enable=false&#10;time_sync_period=100000000000&#10;time_sync_spin_threshold=100000000">
<path fill="#bab6ae" stroke="#000000" d="M20,-8C20,-8 2653,-8 2653,-8 2659,-8 2665,-14 2665,-20 2665,-20 2665,-517 2665,-517 2665,-523 2659,-529 2653,-529 2653,-529 20,-529 20,-529 14,-529 8,-523 8,-517 8,-517 8,-20 8,-20 8,-14 14,-8 20,-8"/>
<text text-anchor="middle" x="1336.5" y="-513.8" font-family="Arial" font-size="14.00" fill="#000000">root </text>
<text text-anchor="middle" x="1336.5" y="-498.8" font-family="Arial" font-size="14.00" fill="#000000">: Root</text>
</a>
</g>
</g>
<g id="clust2" class="cluster">
<title>cluster_system</title>
<g id="a_clust2"><a xlink:title="byte_order=little&#10;cache_line_size=64&#10;eventq_index=0&#10;exit_on_work_items=false&#10;init_param=0&#10;m5ops_base=0&#10;mem_mode=timing&#10;mem_ranges=0:536870912&#10;memories=system.mem_ctrls.dram&#10;mmap_using_noreserve=false&#10;multi_thread=false&#10;&#10;um_work_ids=16&#10;&#13;eadfile=&#10;&#13;edirect_paths=system.redirect_paths0 system.redirect_paths1 system.redirect_paths2&#10;shared_backstore=&#10;symbolfile=&#10;thermal_components=&#10;thermal_model=Null&#10;work_begin_ckpt_count=0&#10;work_begin_cpu_id_exit=&#45;1&#10;work_begin_exit_count=0&#10;work_cpus_ckpt_count=0&#10;work_end_ckpt_count=0&#10;work_end_exit_count=0&#10;work_item_id=&#45;1&#10;workload=Null">
<path fill="#e4e7eb" stroke="#000000" d="M28,-16C28,-16 2645,-16 2645,-16 2651,-16 2657,-22 2657,-28 2657,-28 2657,-471 2657,-471 2657,-477 2651,-483 2645,-483 2645,-483 28,-483 28,-483 22,-483 16,-477 16,-471 16,-471 16,-28 16,-28 16,-22 22,-16 28,-16"/>
<text text-anchor="middle" x="1336.5" y="-467.8" font-family="Arial" font-size="14.00" fill="#000000">system </text>
<text text-anchor="middle" x="1336.5" y="-452.8" font-family="Arial" font-size="14.00" fill="#000000">: System</text>
</a>
</g>
</g>
<g id="clust4" class="cluster">
<title>cluster_system_cpu</title>
<g id="a_clust4"><a xlink:title="branchPred=system.cpu.branchPred&#10;checker=Null&#10;clk_domain=system.cpu_clk_domain&#10;cpu_id=0&#10;decodeCycleInput=true&#10;decodeInputBufferSize=3&#10;decodeInputWidth=2&#10;decodeToExecuteForwardDelay=1&#10;do_checkpoint_insts=true&#10;do_statistics_insts=true&#10;dtb=system.cpu.dtb&#10;enableIdling=true&#10;eventq_index=0&#10;executeAllowEarlyMemoryIssue=true&#10;executeBranchDelay=1&#10;executeCommitLimit=2&#10;executeCycleInput=true&#10;executeFuncUnits=system.cpu.executeFuncUnits&#10;executeInputBufferSize=7&#10;executeInputWidth=2&#10;executeIssueLimit=2&#10;executeLSQMaxStoreBufferStoresPerCycle=2&#10;executeLSQRequestsQueueSize=1&#10;executeLSQStoreBufferSize=5&#10;executeLSQTransfersQueueSize=2&#10;executeMaxAccessesInMemory=2&#10;executeMemoryCommitLimit=1&#10;executeMemoryIssueLimit=1&#10;executeMemoryWidth=0&#10;executeSetTraceTimeOnCommit=true&#10;executeSetTraceTimeOnIssue=false&#10;fetch1FetchLimit=1&#10;fetch1LineSnapWidth=0&#10;fetch1LineWidth=0&#10;fetch1ToFetch2BackwardDelay=1&#10;fetch1ToFetch2ForwardDelay=1&#10;fetch2CycleInput=true&#10;fetch2InputBufferSize=2&#10;fetch2ToDecodeForwardDelay=1&#10;function_trace=false&#10;function_trace_start=0&#10;interrupts=system.cpu.interrupts&#10;isa=system.cpu.isa&#10;itb=system.cpu.itb&#10;max_insts_all_threads=0&#10;max_insts_any_thread=0&#10;&#10;umThreads=1&#10;power_gating_on_idle=false&#10;power_model=&#10;power_state=system.cpu.power_state&#10;progress_interval=0&#10;pwr_gating_latency=300&#10;simpoint_start_insts=&#10;socket_id=0&#10;switched_out=false&#10;syscallRetryLatency=10000&#10;system=system&#10;threadPolicy=RoundRobin&#10;tracer=system.cpu.tracer&#10;wait_for_remote_gdb=false&#10;workload=system.cpu.workload">
<path fill="#bbc6d9" stroke="#000000" d="M751,-24C751,-24 939,-24 939,-24 945,-24 951,-30 951,-36 951,-36 951,-103 951,-103 951,-109 945,-115 939,-115 939,-115 751,-115 751,-115 745,-115 739,-109 739,-103 739,-103 739,-36 739,-36 739,-30 745,-24 751,-24"/>
<text text-anchor="middle" x="845" y="-99.8" font-family="Arial" font-size="14.00" fill="#000000">cpu </text>
<text text-anchor="middle" x="845" y="-84.8" font-family="Arial" font-size="14.00" fill="#000000">: MinorCPU</text>
</a>
</g>
</g>
<g id="clust112" class="cluster">
<title>cluster_system_ruby</title>
<g id="a_clust112"><a xlink:title="access_backing_store=false&#10;all_instructions=false&#10;block_size_bytes=64&#10;clk_domain=system.ruby.clk_domain&#10;eventq_index=0&#10;hot_lines=false&#10;memory_size_bits=48&#10;&#10;um_of_sequencers=1&#10;&#10;umber_of_virtual_networks=3&#10;phys_mem=Null&#10;power_model=&#10;power_state=system.ruby.power_state&#10;&#13;andomization=false&#10;system=system">
<path fill="#bab6ae" stroke="#000000" d="M159,-139C159,-139 2637,-139 2637,-139 2643,-139 2649,-145 2649,-151 2649,-151 2649,-425 2649,-425 2649,-431 2643,-437 2637,-437 2637,-437 159,-437 159,-437 153,-437 147,-431 147,-425 147,-425 147,-151 147,-151 147,-145 153,-139 159,-139"/>
<text text-anchor="middle" x="1398" y="-421.8" font-family="Arial" font-size="14.00" fill="#000000">ruby </text>
<text text-anchor="middle" x="1398" y="-406.8" font-family="Arial" font-size="14.00" fill="#000000">: RubySystem</text>
</a>
</g>
</g>
<g id="clust114" class="cluster">
<title>cluster_system_ruby_network</title>
<g id="a_clust114"><a xlink:title="adaptive_routing=false&#10;buffer_size=0&#10;clk_domain=system.ruby.clk_domain&#10;control_msg_size=8&#10;endpoint_bandwidth=1000&#10;eventq_index=0&#10;ext_links=system.ruby.network.ext_links0 system.ruby.network.ext_links1 system.ruby.network.ext_links2&#10;int_link_buffers=system.ruby.network.int_link_buffers00 system.ruby.network.int_link_buffers01 system.ruby.network.int_link_buffers02 system.ruby.network.int_link_buffers03 system.ruby.network.int_link_buffers04 system.ruby.network.int_link_buffers05 system.ruby.network.int_link_buffers06 system.ruby.network.int_link_buffers07 system.ruby.network.int_link_buffers08 system.ruby.network.int_link_buffers09 system.ruby.network.int_link_buffers10 system.ruby.network.int_link_buffers11 system.ruby.network.int_link_buffers12 system.ruby.network.int_link_buffers13 system.ruby.network.int_link_buffers14 system.ruby.network.int_link_buffers15 system.ruby.network.int_link_buffers16 system.ruby.network.int_link_buffers17 system.ruby.network.int_link_buffers18 system.ruby.network.int_link_buffers19 system.ruby.network.int_link_buffers20 system.ruby.network.int_link_buffers21 system.ruby.network.int_link_buffers22 system.ruby.network.int_link_buffers23 system.ruby.network.int_link_buffers24 system.ruby.network.int_link_buffers25 system.ruby.network.int_link_buffers26 system.ruby.network.int_link_buffers27 system.ruby.network.int_link_buffers28 system.ruby.network.int_link_buffers29 system.ruby.network.int_link_buffers30 system.ruby.network.int_link_buffers31 system.ruby.network.int_link_buffers32 system.ruby.network.int_link_buffers33 system.ruby.network.int_link_buffers34 system.ruby.network.int_link_buffers35&#10;int_links=system.ruby.network.int_links0 system.ruby.network.int_links1 system.ruby.network.int_links2 system.ruby.network.int_links3 system.ruby.network.int_links4 system.ruby.network.int_links5&#10;&#10;etifs=&#10;&#10;umber_of_virtual_networks=3&#10;power_model=&#10;power_state=system.ruby.network.power_state&#10;&#13;outers=system.ruby.network.routers0 system.ruby.network.routers1 system.ruby.network.routers2 system.ruby.network.routers3&#10;&#13;uby_system=system.ruby&#10;topology=Crossbar">
<path fill="#9f9c95" stroke="#000000" d="M1362,-300C1362,-300 1496,-300 1496,-300 1502,-300 1508,-306 1508,-312 1508,-312 1508,-379 1508,-379 1508,-385 1502,-391 1496,-391 1496,-391 1362,-391 1362,-391 1356,-391 1350,-385 1350,-379 1350,-379 1350,-312 1350,-312 1350,-306 1356,-300 1362,-300"/>
<text text-anchor="middle" x="1429" y="-375.8" font-family="Arial" font-size="14.00" fill="#000000">network </text>
<text text-anchor="middle" x="1429" y="-360.8" font-family="Arial" font-size="14.00" fill="#000000">: SimpleNetwork</text>
</a>
</g>
</g>
<g id="clust223" class="cluster">
<title>cluster_system_ruby_l1_cntrl0</title>
<g id="a_clust223"><a xlink:title="L1Dcache=system.ruby.l1_cntrl0.L1Dcache&#10;L1Icache=system.ruby.l1_cntrl0.L1Icache&#10;addr_ranges=0:18446744073709551615&#10;buffer_size=0&#10;clk_domain=system.cpu_clk_domain&#10;cluster_id=0&#10;eventq_index=0&#10;mandatoryQueue=system.ruby.l1_cntrl0.mandatoryQueue&#10;mandatory_queue_latency=1&#10;&#10;umber_of_TBEs=256&#10;power_model=&#10;power_state=system.ruby.l1_cntrl0.power_state&#10;&#13;ecycle_latency=10&#10;&#13;equestFromL1Cache=system.ruby.l1_cntrl0.requestFromL1Cache&#10;&#13;equestToL1Cache=system.ruby.l1_cntrl0.requestToL1Cache&#10;&#13;equest_latency=1&#10;&#13;esponseFromL1Cache=system.ruby.l1_cntrl0.responseFromL1Cache&#10;&#13;esponseToL1Cache=system.ruby.l1_cntrl0.responseToL1Cache&#10;&#13;esponse_latency=1&#10;&#13;uby_system=system.ruby&#10;send_evictions=true&#10;sequencer=system.ruby.l1_cntrl0.sequencer&#10;system=system&#10;transitions_per_cycle=4&#10;triggerQueue=system.ruby.l1_cntrl0.triggerQueue&#10;use_timeout_latency=50&#10;version=0">
<path fill="#9f9c95" stroke="#000000" d="M167,-147C167,-147 904,-147 904,-147 910,-147 916,-153 916,-159 916,-159 916,-280 916,-280 916,-286 910,-292 904,-292 904,-292 167,-292 167,-292 161,-292 155,-286 155,-280 155,-280 155,-159 155,-159 155,-153 161,-147 167,-147"/>
<text text-anchor="middle" x="535.5" y="-276.8" font-family="Arial" font-size="14.00" fill="#000000">l1_cntrl0 </text>
<text text-anchor="middle" x="535.5" y="-261.8" font-family="Arial" font-size="14.00" fill="#000000">: L1Cache_Controller</text>
</a>
</g>
</g>
<g id="clust229" class="cluster">
<title>cluster_system_ruby_l1_cntrl0_sequencer</title>
<g id="a_clust229"><a xlink:title="clk_domain=system.cpu_clk_domain&#10;coreid=99&#10;dcache=system.ruby.l1_cntrl0.L1Dcache&#10;deadlock_threshold=500000&#10;eventq_index=0&#10;garnet_standalone=false&#10;icache=system.ruby.l1_cntrl0.L1Icache&#10;is_cpu_sequencer=true&#10;max_outstanding_requests=16&#10;&#10;o_retry_on_stall=false&#10;power_model=&#10;power_state=system.ruby.l1_cntrl0.sequencer.power_state&#10;&#13;uby_system=system.ruby&#10;support_data_reqs=true&#10;support_inst_reqs=true&#10;system=system&#10;using_ruby_tester=false&#10;version=0">
<path fill="#84827c" stroke="#000000" d="M799,-155C799,-155 896,-155 896,-155 902,-155 908,-161 908,-167 908,-167 908,-234 908,-234 908,-240 902,-246 896,-246 896,-246 799,-246 799,-246 793,-246 787,-240 787,-234 787,-234 787,-167 787,-167 787,-161 793,-155 799,-155"/>
<text text-anchor="middle" x="847.5" y="-230.8" font-family="Arial" font-size="14.00" fill="#000000">sequencer </text>
<text text-anchor="middle" x="847.5" y="-215.8" font-family="Arial" font-size="14.00" fill="#000000">: RubySequencer</text>
</a>
</g>
</g>
<g id="clust232" class="cluster">
<title>cluster_system_ruby_l1_cntrl0_requestFromL1Cache</title>
<g id="a_clust232"><a xlink:title="buffer_size=0&#10;eventq_index=0&#10;ordered=false&#10;&#13;andomization=false">
<path fill="#84827c" stroke="#000000" d="M639,-155C639,-155 767,-155 767,-155 773,-155 779,-161 779,-167 779,-167 779,-234 779,-234 779,-240 773,-246 767,-246 767,-246 639,-246 639,-246 633,-246 627,-240 627,-234 627,-234 627,-167 627,-167 627,-161 633,-155 639,-155"/>
<text text-anchor="middle" x="703" y="-230.8" font-family="Arial" font-size="14.00" fill="#000000">requestFromL1Cache </text>
<text text-anchor="middle" x="703" y="-215.8" font-family="Arial" font-size="14.00" fill="#000000">: MessageBuffer</text>
</a>
</g>
</g>
<g id="clust233" class="cluster">
<title>cluster_system_ruby_l1_cntrl0_responseFromL1Cache</title>
<g id="a_clust233"><a xlink:title="buffer_size=0&#10;eventq_index=0&#10;ordered=false&#10;&#13;andomization=false">
<path fill="#84827c" stroke="#000000" d="M469,-155C469,-155 607,-155 607,-155 613,-155 619,-161 619,-167 619,-167 619,-234 619,-234 619,-240 613,-246 607,-246 607,-246 469,-246 469,-246 463,-246 457,-240 457,-234 457,-234 457,-167 457,-167 457,-161 463,-155 469,-155"/>
<text text-anchor="middle" x="538" y="-230.8" font-family="Arial" font-size="14.00" fill="#000000">responseFromL1Cache </text>
<text text-anchor="middle" x="538" y="-215.8" font-family="Arial" font-size="14.00" fill="#000000">: MessageBuffer</text>
</a>
</g>
</g>
<g id="clust234" class="cluster">
<title>cluster_system_ruby_l1_cntrl0_requestToL1Cache</title>
<g id="a_clust234"><a xlink:title="buffer_size=0&#10;eventq_index=0&#10;ordered=false&#10;&#13;andomization=false">
<path fill="#84827c" stroke="#000000" d="M327,-155C327,-155 437,-155 437,-155 443,-155 449,-161 449,-167 449,-167 449,-234 449,-234 449,-240 443,-246 437,-246 437,-246 327,-246 327,-246 321,-246 315,-240 315,-234 315,-234 315,-167 315,-167 315,-161 321,-155 327,-155"/>
<text text-anchor="middle" x="382" y="-230.8" font-family="Arial" font-size="14.00" fill="#000000">requestToL1Cache </text>
<text text-anchor="middle" x="382" y="-215.8" font-family="Arial" font-size="14.00" fill="#000000">: MessageBuffer</text>
</a>
</g>
</g>
<g id="clust235" class="cluster">
<title>cluster_system_ruby_l1_cntrl0_responseToL1Cache</title>
<g id="a_clust235"><a xlink:title="buffer_size=0&#10;eventq_index=0&#10;ordered=false&#10;&#13;andomization=false">
<path fill="#84827c" stroke="#000000" d="M175,-155C175,-155 295,-155 295,-155 301,-155 307,-161 307,-167 307,-167 307,-234 307,-234 307,-240 301,-246 295,-246 295,-246 175,-246 175,-246 169,-246 163,-240 163,-234 163,-234 163,-167 163,-167 163,-161 169,-155 175,-155"/>
<text text-anchor="middle" x="235" y="-230.8" font-family="Arial" font-size="14.00" fill="#000000">responseToL1Cache </text>
<text text-anchor="middle" x="235" y="-215.8" font-family="Arial" font-size="14.00" fill="#000000">: MessageBuffer</text>
</a>
</g>
</g>
<g id="clust237" class="cluster">
<title>cluster_system_ruby_l2_cntrl0</title>
<g id="a_clust237"><a xlink:title="GlobalRequestFromL2Cache=system.ruby.l2_cntrl0.GlobalRequestFromL2Cache&#10;GlobalRequestToL2Cache=system.ruby.l2_cntrl0.GlobalRequestToL2Cache&#10;L1RequestFromL2Cache=system.ruby.l2_cntrl0.L1RequestFromL2Cache&#10;L1RequestToL2Cache=system.ruby.l2_cntrl0.L1RequestToL2Cache&#10;L2cache=system.ruby.l2_cntrl0.L2cache&#10;addr_ranges=0:536870912&#10;buffer_size=0&#10;clk_domain=system.ruby.clk_domain&#10;cluster_id=0&#10;eventq_index=0&#10;mandatory_queue_latency=1&#10;&#10;umber_of_TBEs=256&#10;power_model=&#10;power_state=system.ruby.l2_cntrl0.power_state&#10;&#13;ecycle_latency=10&#10;&#13;equest_latency=1&#10;&#13;esponseFromL2Cache=system.ruby.l2_cntrl0.responseFromL2Cache&#10;&#13;esponseToL2Cache=system.ruby.l2_cntrl0.responseToL2Cache&#10;&#13;esponse_latency=1&#10;&#13;uby_system=system.ruby&#10;system=system&#10;transitions_per_cycle=4&#10;triggerQueue=system.ruby.l2_cntrl0.triggerQueue&#10;version=0">
<path fill="#9f9c95" stroke="#000000" d="M936,-147C936,-147 1976,-147 1976,-147 1982,-147 1988,-153 1988,-159 1988,-159 1988,-280 1988,-280 1988,-286 1982,-292 1976,-292 1976,-292 936,-292 936,-292 930,-292 924,-286 924,-280 924,-280 924,-159 924,-159 924,-153 930,-147 936,-147"/>
<text text-anchor="middle" x="1456" y="-276.8" font-family="Arial" font-size="14.00" fill="#000000">l2_cntrl0 </text>
<text text-anchor="middle" x="1456" y="-261.8" font-family="Arial" font-size="14.00" fill="#000000">: L2Cache_Controller</text>
</a>
</g>
</g>
<g id="clust241" class="cluster">
<title>cluster_system_ruby_l2_cntrl0_GlobalRequestFromL2Cache</title>
<g id="a_clust241"><a xlink:title="buffer_size=0&#10;eventq_index=0&#10;ordered=false&#10;&#13;andomization=false">
<path fill="#84827c" stroke="#000000" d="M1795,-155C1795,-155 1968,-155 1968,-155 1974,-155 1980,-161 1980,-167 1980,-167 1980,-234 1980,-234 1980,-240 1974,-246 1968,-246 1968,-246 1795,-246 1795,-246 1789,-246 1783,-240 1783,-234 1783,-234 1783,-167 1783,-167 1783,-161 1789,-155 1795,-155"/>
<text text-anchor="middle" x="1881.5" y="-230.8" font-family="Arial" font-size="14.00" fill="#000000">GlobalRequestFromL2Cache </text>
<text text-anchor="middle" x="1881.5" y="-215.8" font-family="Arial" font-size="14.00" fill="#000000">: MessageBuffer</text>
</a>
</g>
</g>
<g id="clust242" class="cluster">
<title>cluster_system_ruby_l2_cntrl0_L1RequestFromL2Cache</title>
<g id="a_clust242"><a xlink:title="buffer_size=0&#10;eventq_index=0&#10;ordered=false&#10;&#13;andomization=false">
<path fill="#84827c" stroke="#000000" d="M1615,-155C1615,-155 1763,-155 1763,-155 1769,-155 1775,-161 1775,-167 1775,-167 1775,-234 1775,-234 1775,-240 1769,-246 1763,-246 1763,-246 1615,-246 1615,-246 1609,-246 1603,-240 1603,-234 1603,-234 1603,-167 1603,-167 1603,-161 1609,-155 1615,-155"/>
<text text-anchor="middle" x="1689" y="-230.8" font-family="Arial" font-size="14.00" fill="#000000">L1RequestFromL2Cache </text>
<text text-anchor="middle" x="1689" y="-215.8" font-family="Arial" font-size="14.00" fill="#000000">: MessageBuffer</text>
</a>
</g>
</g>
<g id="clust243" class="cluster">
<title>cluster_system_ruby_l2_cntrl0_responseFromL2Cache</title>
<g id="a_clust243"><a xlink:title="buffer_size=0&#10;eventq_index=0&#10;ordered=false&#10;&#13;andomization=false">
<path fill="#84827c" stroke="#000000" d="M1445,-155C1445,-155 1583,-155 1583,-155 1589,-155 1595,-161 1595,-167 1595,-167 1595,-234 1595,-234 1595,-240 1589,-246 1583,-246 1583,-246 1445,-246 1445,-246 1439,-246 1433,-240 1433,-234 1433,-234 1433,-167 1433,-167 1433,-161 1439,-155 1445,-155"/>
<text text-anchor="middle" x="1514" y="-230.8" font-family="Arial" font-size="14.00" fill="#000000">responseFromL2Cache </text>
<text text-anchor="middle" x="1514" y="-215.8" font-family="Arial" font-size="14.00" fill="#000000">: MessageBuffer</text>
</a>
</g>
</g>
<g id="clust244" class="cluster">
<title>cluster_system_ruby_l2_cntrl0_GlobalRequestToL2Cache</title>
<g id="a_clust244"><a xlink:title="buffer_size=0&#10;eventq_index=0&#10;ordered=false&#10;&#13;andomization=false">
<path fill="#84827c" stroke="#000000" d="M1258,-155C1258,-155 1413,-155 1413,-155 1419,-155 1425,-161 1425,-167 1425,-167 1425,-234 1425,-234 1425,-240 1419,-246 1413,-246 1413,-246 1258,-246 1258,-246 1252,-246 1246,-240 1246,-234 1246,-234 1246,-167 1246,-167 1246,-161 1252,-155 1258,-155"/>
<text text-anchor="middle" x="1335.5" y="-230.8" font-family="Arial" font-size="14.00" fill="#000000">GlobalRequestToL2Cache </text>
<text text-anchor="middle" x="1335.5" y="-215.8" font-family="Arial" font-size="14.00" fill="#000000">: MessageBuffer</text>
</a>
</g>
</g>
<g id="clust245" class="cluster">
<title>cluster_system_ruby_l2_cntrl0_L1RequestToL2Cache</title>
<g id="a_clust245"><a xlink:title="buffer_size=0&#10;eventq_index=0&#10;ordered=false&#10;&#13;andomization=false">
<path fill="#84827c" stroke="#000000" d="M1096,-155C1096,-155 1226,-155 1226,-155 1232,-155 1238,-161 1238,-167 1238,-167 1238,-234 1238,-234 1238,-240 1232,-246 1226,-246 1226,-246 1096,-246 1096,-246 1090,-246 1084,-240 1084,-234 1084,-234 1084,-167 1084,-167 1084,-161 1090,-155 1096,-155"/>
<text text-anchor="middle" x="1161" y="-230.8" font-family="Arial" font-size="14.00" fill="#000000">L1RequestToL2Cache </text>
<text text-anchor="middle" x="1161" y="-215.8" font-family="Arial" font-size="14.00" fill="#000000">: MessageBuffer</text>
</a>
</g>
</g>
<g id="clust246" class="cluster">
<title>cluster_system_ruby_l2_cntrl0_responseToL2Cache</title>
<g id="a_clust246"><a xlink:title="buffer_size=0&#10;eventq_index=0&#10;ordered=false&#10;&#13;andomization=false">
<path fill="#84827c" stroke="#000000" d="M944,-155C944,-155 1064,-155 1064,-155 1070,-155 1076,-161 1076,-167 1076,-167 1076,-234 1076,-234 1076,-240 1070,-246 1064,-246 1064,-246 944,-246 944,-246 938,-246 932,-240 932,-234 932,-234 932,-167 932,-167 932,-161 938,-155 944,-155"/>
<text text-anchor="middle" x="1004" y="-230.8" font-family="Arial" font-size="14.00" fill="#000000">responseToL2Cache </text>
<text text-anchor="middle" x="1004" y="-215.8" font-family="Arial" font-size="14.00" fill="#000000">: MessageBuffer</text>
</a>
</g>
</g>
<g id="clust249" class="cluster">
<title>cluster_system_ruby_dir_cntrl0</title>
<g id="a_clust249"><a xlink:title="addr_ranges=0:536870912&#10;buffer_size=0&#10;clk_domain=system.ruby.clk_domain&#10;cluster_id=0&#10;directory=system.ruby.dir_cntrl0.directory&#10;directory_latency=6&#10;eventq_index=0&#10;forwardFromDir=system.ruby.dir_cntrl0.forwardFromDir&#10;mandatory_queue_latency=1&#10;&#10;umber_of_TBEs=256&#10;power_model=&#10;power_state=system.ruby.dir_cntrl0.power_state&#10;&#13;ecycle_latency=10&#10;&#13;equestToDir=system.ruby.dir_cntrl0.requestToDir&#10;&#13;equestToMemory=system.ruby.dir_cntrl0.requestToMemory&#10;&#13;esponseFromDir=system.ruby.dir_cntrl0.responseFromDir&#10;&#13;esponseFromMemory=system.ruby.dir_cntrl0.responseFromMemory&#10;&#13;esponseToDir=system.ruby.dir_cntrl0.responseToDir&#10;&#13;uby_system=system.ruby&#10;system=system&#10;to_memory_controller_latency=1&#10;transitions_per_cycle=32&#10;triggerQueue=system.ruby.dir_cntrl0.triggerQueue&#10;version=0">
<path fill="#9f9c95" stroke="#000000" d="M2008,-147C2008,-147 2629,-147 2629,-147 2635,-147 2641,-153 2641,-159 2641,-159 2641,-280 2641,-280 2641,-286 2635,-292 2629,-292 2629,-292 2008,-292 2008,-292 2002,-292 1996,-286 1996,-280 1996,-280 1996,-159 1996,-159 1996,-153 2002,-147 2008,-147"/>
<text text-anchor="middle" x="2318.5" y="-276.8" font-family="Arial" font-size="14.00" fill="#000000">dir_cntrl0 </text>
<text text-anchor="middle" x="2318.5" y="-261.8" font-family="Arial" font-size="14.00" fill="#000000">: Directory_Controller</text>
</a>
</g>
</g>
<g id="clust252" class="cluster">
<title>cluster_system_ruby_dir_cntrl0_requestToDir</title>
<g id="a_clust252"><a xlink:title="buffer_size=0&#10;eventq_index=0&#10;ordered=false&#10;&#13;andomization=false">
<path fill="#84827c" stroke="#000000" d="M2148,-155C2148,-155 2240,-155 2240,-155 2246,-155 2252,-161 2252,-167 2252,-167 2252,-234 2252,-234 2252,-240 2246,-246 2240,-246 2240,-246 2148,-246 2148,-246 2142,-246 2136,-240 2136,-234 2136,-234 2136,-167 2136,-167 2136,-161 2142,-155 2148,-155"/>
<text text-anchor="middle" x="2194" y="-230.8" font-family="Arial" font-size="14.00" fill="#000000">requestToDir </text>
<text text-anchor="middle" x="2194" y="-215.8" font-family="Arial" font-size="14.00" fill="#000000">: MessageBuffer</text>
</a>
</g>
</g>
<g id="clust253" class="cluster">
<title>cluster_system_ruby_dir_cntrl0_responseToDir</title>
<g id="a_clust253"><a xlink:title="buffer_size=0&#10;eventq_index=0&#10;ordered=false&#10;&#13;andomization=false">
<path fill="#84827c" stroke="#000000" d="M2272,-155C2272,-155 2364,-155 2364,-155 2370,-155 2376,-161 2376,-167 2376,-167 2376,-234 2376,-234 2376,-240 2370,-246 2364,-246 2364,-246 2272,-246 2272,-246 2266,-246 2260,-240 2260,-234 2260,-234 2260,-167 2260,-167 2260,-161 2266,-155 2272,-155"/>
<text text-anchor="middle" x="2318" y="-230.8" font-family="Arial" font-size="14.00" fill="#000000">responseToDir </text>
<text text-anchor="middle" x="2318" y="-215.8" font-family="Arial" font-size="14.00" fill="#000000">: MessageBuffer</text>
</a>
</g>
</g>
<g id="clust254" class="cluster">
<title>cluster_system_ruby_dir_cntrl0_responseFromDir</title>
<g id="a_clust254"><a xlink:title="buffer_size=0&#10;eventq_index=0&#10;ordered=false&#10;&#13;andomization=false">
<path fill="#84827c" stroke="#000000" d="M2396,-155C2396,-155 2497,-155 2497,-155 2503,-155 2509,-161 2509,-167 2509,-167 2509,-234 2509,-234 2509,-240 2503,-246 2497,-246 2497,-246 2396,-246 2396,-246 2390,-246 2384,-240 2384,-234 2384,-234 2384,-167 2384,-167 2384,-161 2390,-155 2396,-155"/>
<text text-anchor="middle" x="2446.5" y="-230.8" font-family="Arial" font-size="14.00" fill="#000000">responseFromDir </text>
<text text-anchor="middle" x="2446.5" y="-215.8" font-family="Arial" font-size="14.00" fill="#000000">: MessageBuffer</text>
</a>
</g>
</g>
<g id="clust255" class="cluster">
<title>cluster_system_ruby_dir_cntrl0_forwardFromDir</title>
<g id="a_clust255"><a xlink:title="buffer_size=0&#10;eventq_index=0&#10;ordered=false&#10;&#13;andomization=false">
<path fill="#84827c" stroke="#000000" d="M2529,-155C2529,-155 2621,-155 2621,-155 2627,-155 2633,-161 2633,-167 2633,-167 2633,-234 2633,-234 2633,-240 2627,-246 2621,-246 2621,-246 2529,-246 2529,-246 2523,-246 2517,-240 2517,-234 2517,-234 2517,-167 2517,-167 2517,-161 2523,-155 2529,-155"/>
<text text-anchor="middle" x="2575" y="-230.8" font-family="Arial" font-size="14.00" fill="#000000">forwardFromDir </text>
<text text-anchor="middle" x="2575" y="-215.8" font-family="Arial" font-size="14.00" fill="#000000">: MessageBuffer</text>
</a>
</g>
</g>
<g id="clust263" class="cluster">
<title>cluster_system_sys_port_proxy</title>
<g id="a_clust263"><a xlink:title="clk_domain=system.clk_domain&#10;eventq_index=0&#10;is_cpu_sequencer=true&#10;&#10;o_retry_on_stall=false&#10;power_model=&#10;power_state=system.sys_port_proxy.power_state&#10;&#13;uby_system=system.ruby&#10;support_data_reqs=true&#10;support_inst_reqs=true&#10;system=system&#10;using_ruby_tester=false&#10;version=0">
<path fill="#bab6ae" stroke="#000000" d="M36,-155C36,-155 127,-155 127,-155 133,-155 139,-161 139,-167 139,-167 139,-234 139,-234 139,-240 133,-246 127,-246 127,-246 36,-246 36,-246 30,-246 24,-240 24,-234 24,-234 24,-167 24,-167 24,-161 30,-155 36,-155"/>
<text text-anchor="middle" x="81.5" y="-230.8" font-family="Arial" font-size="14.00" fill="#000000">sys_port_proxy </text>
<text text-anchor="middle" x="81.5" y="-215.8" font-family="Arial" font-size="14.00" fill="#000000">: RubyPortProxy</text>
</a>
</g>
</g>
<g id="clust265" class="cluster">
<title>cluster_system_mem_ctrls</title>
<g id="a_clust265"><a xlink:title="clk_domain=system.clk_domain&#10;command_window=10000&#10;dram=system.mem_ctrls.dram&#10;eventq_index=0&#10;mem_sched_policy=frfcfs&#10;min_writes_per_switch=16&#10;&#10;vm=Null&#10;power_model=&#10;power_state=system.mem_ctrls.power_state&#10;qos_policy=Null&#10;qos_priorities=1&#10;qos_priority_escalation=false&#10;qos_q_policy=fifo&#10;qos_requestors= &#160;&#160;&#160;&#160;&#160;&#160;&#160;&#160;&#160;&#160;&#160;&#160;&#160;&#160;&#10;qos_syncro_scheduler=false&#10;qos_turnaround_policy=Null&#10;static_backend_latency=10000&#10;static_frontend_latency=10000&#10;system=system&#10;write_high_thresh_perc=85&#10;write_low_thresh_perc=50">
<path fill="#bab6ae" stroke="#000000" d="M2036,-24C2036,-24 2096,-24 2096,-24 2102,-24 2108,-30 2108,-36 2108,-36 2108,-103 2108,-103 2108,-109 2102,-115 2096,-115 2096,-115 2036,-115 2036,-115 2030,-115 2024,-109 2024,-103 2024,-103 2024,-36 2024,-36 2024,-30 2030,-24 2036,-24"/>
<text text-anchor="middle" x="2066" y="-99.8" font-family="Arial" font-size="14.00" fill="#000000">mem_ctrls </text>
<text text-anchor="middle" x="2066" y="-84.8" font-family="Arial" font-size="14.00" fill="#000000">: MemCtrl</text>
</a>
</g>
</g>
<!-- system_system_port -->
<g id="node1" class="node">
<title>system_system_port</title>
<path fill="#b6b8bc" stroke="#000000" d="M47.5,-308.5C47.5,-308.5 114.5,-308.5 114.5,-308.5 120.5,-308.5 126.5,-314.5 126.5,-320.5 126.5,-320.5 126.5,-332.5 126.5,-332.5 126.5,-338.5 120.5,-344.5 114.5,-344.5 114.5,-344.5 47.5,-344.5 47.5,-344.5 41.5,-344.5 35.5,-338.5 35.5,-332.5 35.5,-332.5 35.5,-320.5 35.5,-320.5 35.5,-314.5 41.5,-308.5 47.5,-308.5"/>
<text text-anchor="middle" x="81" y="-322.8" font-family="Arial" font-size="14.00" fill="#000000">system_port</text>
</g>
<!-- system_sys_port_proxy_in_ports -->
<g id="node22" class="node">
<title>system_sys_port_proxy_in_ports</title>
<path fill="#94918b" stroke="#000000" d="M60.5,-163.5C60.5,-163.5 101.5,-163.5 101.5,-163.5 107.5,-163.5 113.5,-169.5 113.5,-175.5 113.5,-175.5 113.5,-187.5 113.5,-187.5 113.5,-193.5 107.5,-199.5 101.5,-199.5 101.5,-199.5 60.5,-199.5 60.5,-199.5 54.5,-199.5 48.5,-193.5 48.5,-187.5 48.5,-187.5 48.5,-175.5 48.5,-175.5 48.5,-169.5 54.5,-163.5 60.5,-163.5"/>
<text text-anchor="middle" x="81" y="-177.8" font-family="Arial" font-size="14.00" fill="#000000">in_ports</text>
</g>
<!-- system_system_port&#45;&gt;system_sys_port_proxy_in_ports -->
<g id="edge1" class="edge">
<title>system_system_port&#45;&gt;system_sys_port_proxy_in_ports</title>
<path fill="none" stroke="black" d="M81,-308.25C81,-283.88 81,-239.11 81,-210.09"/>
<polygon fill="black" stroke="black" points="84.5,-209.81 81,-199.81 77.5,-209.81 84.5,-209.81"/>
</g>
<!-- system_cpu_icache_port -->
<g id="node2" class="node">
<title>system_cpu_icache_port</title>
<path fill="#959ead" stroke="#000000" d="M869,-32.5C869,-32.5 931,-32.5 931,-32.5 937,-32.5 943,-38.5 943,-44.5 943,-44.5 943,-56.5 943,-56.5 943,-62.5 937,-68.5 931,-68.5 931,-68.5 869,-68.5 869,-68.5 863,-68.5 857,-62.5 857,-56.5 857,-56.5 857,-44.5 857,-44.5 857,-38.5 863,-32.5 869,-32.5"/>
<text text-anchor="middle" x="900" y="-46.8" font-family="Arial" font-size="14.00" fill="#000000">icache_port</text>
</g>
<!-- system_cpu_dcache_port -->
<g id="node3" class="node">
<title>system_cpu_dcache_port</title>
<path fill="#959ead" stroke="#000000" d="M759.5,-32.5C759.5,-32.5 826.5,-32.5 826.5,-32.5 832.5,-32.5 838.5,-38.5 838.5,-44.5 838.5,-44.5 838.5,-56.5 838.5,-56.5 838.5,-62.5 832.5,-68.5 826.5,-68.5 826.5,-68.5 759.5,-68.5 759.5,-68.5 753.5,-68.5 747.5,-62.5 747.5,-56.5 747.5,-56.5 747.5,-44.5 747.5,-44.5 747.5,-38.5 753.5,-32.5 759.5,-32.5"/>
<text text-anchor="middle" x="793" y="-46.8" font-family="Arial" font-size="14.00" fill="#000000">dcache_port</text>
</g>
<!-- system_ruby_network_in_port -->
<g id="node4" class="node">
<title>system_ruby_network_in_port</title>
<path fill="#7f7c77" stroke="#000000" d="M1454,-308.5C1454,-308.5 1488,-308.5 1488,-308.5 1494,-308.5 1500,-314.5 1500,-320.5 1500,-320.5 1500,-332.5 1500,-332.5 1500,-338.5 1494,-344.5 1488,-344.5 1488,-344.5 1454,-344.5 1454,-344.5 1448,-344.5 1442,-338.5 1442,-332.5 1442,-332.5 1442,-320.5 1442,-320.5 1442,-314.5 1448,-308.5 1454,-308.5"/>
<text text-anchor="middle" x="1471" y="-322.8" font-family="Arial" font-size="14.00" fill="#000000">in_port</text>
</g>
<!-- system_ruby_l1_cntrl0_requestFromL1Cache_out_port -->
<g id="node7" class="node">
<title>system_ruby_l1_cntrl0_requestFromL1Cache_out_port</title>
<path fill="#6a6863" stroke="#000000" d="M717,-163.5C717,-163.5 759,-163.5 759,-163.5 765,-163.5 771,-169.5 771,-175.5 771,-175.5 771,-187.5 771,-187.5 771,-193.5 765,-199.5 759,-199.5 759,-199.5 717,-199.5 717,-199.5 711,-199.5 705,-193.5 705,-187.5 705,-187.5 705,-175.5 705,-175.5 705,-169.5 711,-163.5 717,-163.5"/>
<text text-anchor="middle" x="738" y="-177.8" font-family="Arial" font-size="14.00" fill="#000000">out_port</text>
</g>
<!-- system_ruby_network_in_port&#45;&gt;system_ruby_l1_cntrl0_requestFromL1Cache_out_port -->
<g id="edge2" class="edge">
<title>system_ruby_network_in_port&#45;&gt;system_ruby_l1_cntrl0_requestFromL1Cache_out_port</title>
<path fill="none" stroke="black" d="M1441.22,-303.31C1438.53,-302 1435.77,-300.86 1433,-300 1415.76,-294.64 797.94,-302.14 783,-292 752.23,-271.1 742.47,-225.02 739.4,-199.81"/>
<polygon fill="black" stroke="black" points="1439.59,-306.42 1450.02,-308.33 1443.06,-300.34 1439.59,-306.42"/>
</g>
<!-- system_ruby_l1_cntrl0_responseFromL1Cache_out_port -->
<g id="node8" class="node">
<title>system_ruby_l1_cntrl0_responseFromL1Cache_out_port</title>
<path fill="#6a6863" stroke="#000000" d="M557,-163.5C557,-163.5 599,-163.5 599,-163.5 605,-163.5 611,-169.5 611,-175.5 611,-175.5 611,-187.5 611,-187.5 611,-193.5 605,-199.5 599,-199.5 599,-199.5 557,-199.5 557,-199.5 551,-199.5 545,-193.5 545,-187.5 545,-187.5 545,-175.5 545,-175.5 545,-169.5 551,-163.5 557,-163.5"/>
<text text-anchor="middle" x="578" y="-177.8" font-family="Arial" font-size="14.00" fill="#000000">out_port</text>
</g>
<!-- system_ruby_network_in_port&#45;&gt;system_ruby_l1_cntrl0_responseFromL1Cache_out_port -->
<g id="edge3" class="edge">
<title>system_ruby_network_in_port&#45;&gt;system_ruby_l1_cntrl0_responseFromL1Cache_out_port</title>
<path fill="none" stroke="black" d="M1441.22,-303.31C1438.53,-301.99 1435.77,-300.86 1433,-300 1411.51,-293.34 641.63,-304.62 623,-292 592.2,-271.14 582.46,-225.04 579.39,-199.82"/>
<polygon fill="black" stroke="black" points="1439.6,-306.41 1450.02,-308.32 1443.06,-300.33 1439.6,-306.41"/>
</g>
<!-- system_ruby_l2_cntrl0_GlobalRequestFromL2Cache_out_port -->
<g id="node11" class="node">
<title>system_ruby_l2_cntrl0_GlobalRequestFromL2Cache_out_port</title>
<path fill="#6a6863" stroke="#000000" d="M1803,-163.5C1803,-163.5 1845,-163.5 1845,-163.5 1851,-163.5 1857,-169.5 1857,-175.5 1857,-175.5 1857,-187.5 1857,-187.5 1857,-193.5 1851,-199.5 1845,-199.5 1845,-199.5 1803,-199.5 1803,-199.5 1797,-199.5 1791,-193.5 1791,-187.5 1791,-187.5 1791,-175.5 1791,-175.5 1791,-169.5 1797,-163.5 1803,-163.5"/>
<text text-anchor="middle" x="1824" y="-177.8" font-family="Arial" font-size="14.00" fill="#000000">out_port</text>
</g>
<!-- system_ruby_network_in_port&#45;&gt;system_ruby_l2_cntrl0_GlobalRequestFromL2Cache_out_port -->
<g id="edge4" class="edge">
<title>system_ruby_network_in_port&#45;&gt;system_ruby_l2_cntrl0_GlobalRequestFromL2Cache_out_port</title>
<path fill="none" stroke="black" d="M1510.23,-326.08C1583.51,-326.39 1737.51,-323.19 1779,-292 1808.57,-269.77 1818.81,-224.67 1822.28,-199.84"/>
<polygon fill="black" stroke="black" points="1510.05,-322.58 1500.03,-326.01 1510.01,-329.58 1510.05,-322.58"/>
</g>
<!-- system_ruby_l2_cntrl0_L1RequestFromL2Cache_out_port -->
<g id="node12" class="node">
<title>system_ruby_l2_cntrl0_L1RequestFromL2Cache_out_port</title>
<path fill="#6a6863" stroke="#000000" d="M1623,-163.5C1623,-163.5 1665,-163.5 1665,-163.5 1671,-163.5 1677,-169.5 1677,-175.5 1677,-175.5 1677,-187.5 1677,-187.5 1677,-193.5 1671,-199.5 1665,-199.5 1665,-199.5 1623,-199.5 1623,-199.5 1617,-199.5 1611,-193.5 1611,-187.5 1611,-187.5 1611,-175.5 1611,-175.5 1611,-169.5 1617,-163.5 1623,-163.5"/>
<text text-anchor="middle" x="1644" y="-177.8" font-family="Arial" font-size="14.00" fill="#000000">out_port</text>
</g>
<!-- system_ruby_network_in_port&#45;&gt;system_ruby_l2_cntrl0_L1RequestFromL2Cache_out_port -->
<g id="edge5" class="edge">
<title>system_ruby_network_in_port&#45;&gt;system_ruby_l2_cntrl0_L1RequestFromL2Cache_out_port</title>
<path fill="none" stroke="black" d="M1510.27,-324.23C1538.04,-321.36 1574.54,-313.38 1599,-292 1626.7,-267.78 1637.66,-223.9 1641.75,-199.69"/>
<polygon fill="black" stroke="black" points="1509.76,-320.76 1500.09,-325.09 1510.35,-327.73 1509.76,-320.76"/>
</g>
<!-- system_ruby_l2_cntrl0_responseFromL2Cache_out_port -->
<g id="node13" class="node">
<title>system_ruby_l2_cntrl0_responseFromL2Cache_out_port</title>
<path fill="#6a6863" stroke="#000000" d="M1453,-163.5C1453,-163.5 1495,-163.5 1495,-163.5 1501,-163.5 1507,-169.5 1507,-175.5 1507,-175.5 1507,-187.5 1507,-187.5 1507,-193.5 1501,-199.5 1495,-199.5 1495,-199.5 1453,-199.5 1453,-199.5 1447,-199.5 1441,-193.5 1441,-187.5 1441,-187.5 1441,-175.5 1441,-175.5 1441,-169.5 1447,-163.5 1453,-163.5"/>
<text text-anchor="middle" x="1474" y="-177.8" font-family="Arial" font-size="14.00" fill="#000000">out_port</text>
</g>
<!-- system_ruby_network_in_port&#45;&gt;system_ruby_l2_cntrl0_responseFromL2Cache_out_port -->
<g id="edge6" class="edge">
<title>system_ruby_network_in_port&#45;&gt;system_ruby_l2_cntrl0_responseFromL2Cache_out_port</title>
<path fill="none" stroke="black" d="M1471.58,-297.99C1472.19,-268.99 1473.12,-224.22 1473.64,-199.81"/>
<polygon fill="black" stroke="black" points="1468.07,-298.18 1471.36,-308.25 1475.07,-298.33 1468.07,-298.18"/>
</g>
<!-- system_ruby_dir_cntrl0_responseFromDir_out_port -->
<g id="node20" class="node">
<title>system_ruby_dir_cntrl0_responseFromDir_out_port</title>
<path fill="#6a6863" stroke="#000000" d="M2404,-163.5C2404,-163.5 2446,-163.5 2446,-163.5 2452,-163.5 2458,-169.5 2458,-175.5 2458,-175.5 2458,-187.5 2458,-187.5 2458,-193.5 2452,-199.5 2446,-199.5 2446,-199.5 2404,-199.5 2404,-199.5 2398,-199.5 2392,-193.5 2392,-187.5 2392,-187.5 2392,-175.5 2392,-175.5 2392,-169.5 2398,-163.5 2404,-163.5"/>
<text text-anchor="middle" x="2425" y="-177.8" font-family="Arial" font-size="14.00" fill="#000000">out_port</text>
</g>
<!-- system_ruby_network_in_port&#45;&gt;system_ruby_dir_cntrl0_responseFromDir_out_port -->
<g id="edge7" class="edge">
<title>system_ruby_network_in_port&#45;&gt;system_ruby_dir_cntrl0_responseFromDir_out_port</title>
<path fill="none" stroke="black" d="M1510.41,-325.23C1680.4,-323.92 2343.88,-317.19 2380,-292 2410.52,-270.72 2420.38,-224.8 2423.53,-199.71"/>
<polygon fill="black" stroke="black" points="1510.14,-321.73 1500.17,-325.31 1510.19,-328.73 1510.14,-321.73"/>
</g>
<!-- system_ruby_dir_cntrl0_forwardFromDir_out_port -->
<g id="node21" class="node">
<title>system_ruby_dir_cntrl0_forwardFromDir_out_port</title>
<path fill="#6a6863" stroke="#000000" d="M2537,-163.5C2537,-163.5 2579,-163.5 2579,-163.5 2585,-163.5 2591,-169.5 2591,-175.5 2591,-175.5 2591,-187.5 2591,-187.5 2591,-193.5 2585,-199.5 2579,-199.5 2579,-199.5 2537,-199.5 2537,-199.5 2531,-199.5 2525,-193.5 2525,-187.5 2525,-187.5 2525,-175.5 2525,-175.5 2525,-169.5 2531,-163.5 2537,-163.5"/>
<text text-anchor="middle" x="2558" y="-177.8" font-family="Arial" font-size="14.00" fill="#000000">out_port</text>
</g>
<!-- system_ruby_network_in_port&#45;&gt;system_ruby_dir_cntrl0_forwardFromDir_out_port -->
<g id="edge8" class="edge">
<title>system_ruby_network_in_port&#45;&gt;system_ruby_dir_cntrl0_forwardFromDir_out_port</title>
<path fill="none" stroke="black" d="M1510.07,-325.43C1694.53,-324.92 2471.08,-321.08 2513,-292 2543.57,-270.8 2553.41,-224.84 2556.55,-199.73"/>
<polygon fill="black" stroke="black" points="1510,-321.93 1500.01,-325.45 1510.01,-328.93 1510,-321.93"/>
</g>
<!-- system_ruby_network_out_port -->
<g id="node5" class="node">
<title>system_ruby_network_out_port</title>
<path fill="#7f7c77" stroke="#000000" d="M1370,-308.5C1370,-308.5 1412,-308.5 1412,-308.5 1418,-308.5 1424,-314.5 1424,-320.5 1424,-320.5 1424,-332.5 1424,-332.5 1424,-338.5 1418,-344.5 1412,-344.5 1412,-344.5 1370,-344.5 1370,-344.5 1364,-344.5 1358,-338.5 1358,-332.5 1358,-332.5 1358,-320.5 1358,-320.5 1358,-314.5 1364,-308.5 1370,-308.5"/>
<text text-anchor="middle" x="1391" y="-322.8" font-family="Arial" font-size="14.00" fill="#000000">out_port</text>
</g>
<!-- system_ruby_l1_cntrl0_requestToL1Cache_in_port -->
<g id="node9" class="node">
<title>system_ruby_l1_cntrl0_requestToL1Cache_in_port</title>
<path fill="#6a6863" stroke="#000000" d="M395,-163.5C395,-163.5 429,-163.5 429,-163.5 435,-163.5 441,-169.5 441,-175.5 441,-175.5 441,-187.5 441,-187.5 441,-193.5 435,-199.5 429,-199.5 429,-199.5 395,-199.5 395,-199.5 389,-199.5 383,-193.5 383,-187.5 383,-187.5 383,-175.5 383,-175.5 383,-169.5 389,-163.5 395,-163.5"/>
<text text-anchor="middle" x="412" y="-177.8" font-family="Arial" font-size="14.00" fill="#000000">in_port</text>
</g>
<!-- system_ruby_network_out_port&#45;&gt;system_ruby_l1_cntrl0_requestToL1Cache_in_port -->
<g id="edge9" class="edge">
<title>system_ruby_network_out_port&#45;&gt;system_ruby_l1_cntrl0_requestToL1Cache_in_port</title>
<path fill="none" stroke="black" d="M1370.63,-308.32C1365.5,-304.92 1359.8,-301.83 1354,-300 1330.14,-292.46 473.5,-306.35 453,-292 426.54,-273.48 417.14,-235.69 413.8,-209.74"/>
<polygon fill="black" stroke="black" points="417.28,-209.34 412.74,-199.76 410.32,-210.08 417.28,-209.34"/>
</g>
<!-- system_ruby_l1_cntrl0_responseToL1Cache_in_port -->
<g id="node10" class="node">
<title>system_ruby_l1_cntrl0_responseToL1Cache_in_port</title>
<path fill="#6a6863" stroke="#000000" d="M253,-163.5C253,-163.5 287,-163.5 287,-163.5 293,-163.5 299,-169.5 299,-175.5 299,-175.5 299,-187.5 299,-187.5 299,-193.5 293,-199.5 287,-199.5 287,-199.5 253,-199.5 253,-199.5 247,-199.5 241,-193.5 241,-187.5 241,-187.5 241,-175.5 241,-175.5 241,-169.5 247,-163.5 253,-163.5"/>
<text text-anchor="middle" x="270" y="-177.8" font-family="Arial" font-size="14.00" fill="#000000">in_port</text>
</g>
<!-- system_ruby_network_out_port&#45;&gt;system_ruby_l1_cntrl0_responseToL1Cache_in_port -->
<g id="edge10" class="edge">
<title>system_ruby_network_out_port&#45;&gt;system_ruby_l1_cntrl0_responseToL1Cache_in_port</title>
<path fill="none" stroke="black" d="M1370.63,-308.31C1365.51,-304.91 1359.8,-301.83 1354,-300 1326.37,-291.28 334.75,-308.6 311,-292 284.53,-273.5 275.13,-235.71 271.8,-209.74"/>
<polygon fill="black" stroke="black" points="275.28,-209.34 270.74,-199.77 268.32,-210.08 275.28,-209.34"/>
</g>
<!-- system_ruby_l2_cntrl0_GlobalRequestToL2Cache_in_port -->
<g id="node14" class="node">
<title>system_ruby_l2_cntrl0_GlobalRequestToL2Cache_in_port</title>
<path fill="#6a6863" stroke="#000000" d="M1371,-163.5C1371,-163.5 1405,-163.5 1405,-163.5 1411,-163.5 1417,-169.5 1417,-175.5 1417,-175.5 1417,-187.5 1417,-187.5 1417,-193.5 1411,-199.5 1405,-199.5 1405,-199.5 1371,-199.5 1371,-199.5 1365,-199.5 1359,-193.5 1359,-187.5 1359,-187.5 1359,-175.5 1359,-175.5 1359,-169.5 1365,-163.5 1371,-163.5"/>
<text text-anchor="middle" x="1388" y="-177.8" font-family="Arial" font-size="14.00" fill="#000000">in_port</text>
</g>
<!-- system_ruby_network_out_port&#45;&gt;system_ruby_l2_cntrl0_GlobalRequestToL2Cache_in_port -->
<g id="edge11" class="edge">
<title>system_ruby_network_out_port&#45;&gt;system_ruby_l2_cntrl0_GlobalRequestToL2Cache_in_port</title>
<path fill="none" stroke="black" d="M1390.64,-308.25C1390.13,-283.88 1389.19,-239.11 1388.58,-210.09"/>
<polygon fill="black" stroke="black" points="1392.07,-209.73 1388.36,-199.81 1385.07,-209.88 1392.07,-209.73"/>
</g>
<!-- system_ruby_l2_cntrl0_L1RequestToL2Cache_in_port -->
<g id="node15" class="node">
<title>system_ruby_l2_cntrl0_L1RequestToL2Cache_in_port</title>
<path fill="#6a6863" stroke="#000000" d="M1184,-163.5C1184,-163.5 1218,-163.5 1218,-163.5 1224,-163.5 1230,-169.5 1230,-175.5 1230,-175.5 1230,-187.5 1230,-187.5 1230,-193.5 1224,-199.5 1218,-199.5 1218,-199.5 1184,-199.5 1184,-199.5 1178,-199.5 1172,-193.5 1172,-187.5 1172,-187.5 1172,-175.5 1172,-175.5 1172,-169.5 1178,-163.5 1184,-163.5"/>
<text text-anchor="middle" x="1201" y="-177.8" font-family="Arial" font-size="14.00" fill="#000000">in_port</text>
</g>
<!-- system_ruby_network_out_port&#45;&gt;system_ruby_l2_cntrl0_L1RequestToL2Cache_in_port -->
<g id="edge12" class="edge">
<title>system_ruby_network_out_port&#45;&gt;system_ruby_l2_cntrl0_L1RequestToL2Cache_in_port</title>
<path fill="none" stroke="black" d="M1370.14,-308.32C1365.13,-305.01 1359.59,-301.96 1354,-300 1330.45,-291.74 1261.99,-306.94 1242,-292 1216.25,-272.75 1206.67,-235.41 1203.11,-209.73"/>
<polygon fill="black" stroke="black" points="1206.55,-209.05 1201.92,-199.52 1199.6,-209.86 1206.55,-209.05"/>
</g>
<!-- system_ruby_l2_cntrl0_responseToL2Cache_in_port -->
<g id="node16" class="node">
<title>system_ruby_l2_cntrl0_responseToL2Cache_in_port</title>
<path fill="#6a6863" stroke="#000000" d="M1022,-163.5C1022,-163.5 1056,-163.5 1056,-163.5 1062,-163.5 1068,-169.5 1068,-175.5 1068,-175.5 1068,-187.5 1068,-187.5 1068,-193.5 1062,-199.5 1056,-199.5 1056,-199.5 1022,-199.5 1022,-199.5 1016,-199.5 1010,-193.5 1010,-187.5 1010,-187.5 1010,-175.5 1010,-175.5 1010,-169.5 1016,-163.5 1022,-163.5"/>
<text text-anchor="middle" x="1039" y="-177.8" font-family="Arial" font-size="14.00" fill="#000000">in_port</text>
</g>
<!-- system_ruby_network_out_port&#45;&gt;system_ruby_l2_cntrl0_responseToL2Cache_in_port -->
<g id="edge13" class="edge">
<title>system_ruby_network_out_port&#45;&gt;system_ruby_l2_cntrl0_responseToL2Cache_in_port</title>
<path fill="none" stroke="black" d="M1370.6,-308.4C1365.48,-305 1359.78,-301.89 1354,-300 1325.05,-290.53 1104.77,-309.72 1080,-292 1053.85,-273.3 1044.36,-235.83 1040.93,-209.97"/>
<polygon fill="black" stroke="black" points="1044.37,-209.24 1039.8,-199.68 1037.41,-210.01 1044.37,-209.24"/>
</g>
<!-- system_ruby_dir_cntrl0_requestToDir_in_port -->
<g id="node18" class="node">
<title>system_ruby_dir_cntrl0_requestToDir_in_port</title>
<path fill="#6a6863" stroke="#000000" d="M2158,-163.5C2158,-163.5 2192,-163.5 2192,-163.5 2198,-163.5 2204,-169.5 2204,-175.5 2204,-175.5 2204,-187.5 2204,-187.5 2204,-193.5 2198,-199.5 2192,-199.5 2192,-199.5 2158,-199.5 2158,-199.5 2152,-199.5 2146,-193.5 2146,-187.5 2146,-187.5 2146,-175.5 2146,-175.5 2146,-169.5 2152,-163.5 2158,-163.5"/>
<text text-anchor="middle" x="2175" y="-177.8" font-family="Arial" font-size="14.00" fill="#000000">in_port</text>
</g>
<!-- system_ruby_network_out_port&#45;&gt;system_ruby_dir_cntrl0_requestToDir_in_port -->
<g id="edge14" class="edge">
<title>system_ruby_network_out_port&#45;&gt;system_ruby_dir_cntrl0_requestToDir_in_port</title>
<path fill="none" stroke="black" d="M1414.4,-308.31C1420.2,-304.91 1426.6,-301.83 1433,-300 1451.94,-294.59 2126.26,-303.84 2142,-292 2167.13,-273.1 2173.8,-235.68 2175.23,-209.88"/>
<polygon fill="black" stroke="black" points="2178.73,-209.74 2175.56,-199.63 2171.74,-209.51 2178.73,-209.74"/>
</g>
<!-- system_ruby_dir_cntrl0_responseToDir_in_port -->
<g id="node19" class="node">
<title>system_ruby_dir_cntrl0_responseToDir_in_port</title>
<path fill="#6a6863" stroke="#000000" d="M2280,-163.5C2280,-163.5 2314,-163.5 2314,-163.5 2320,-163.5 2326,-169.5 2326,-175.5 2326,-175.5 2326,-187.5 2326,-187.5 2326,-193.5 2320,-199.5 2314,-199.5 2314,-199.5 2280,-199.5 2280,-199.5 2274,-199.5 2268,-193.5 2268,-187.5 2268,-187.5 2268,-175.5 2268,-175.5 2268,-169.5 2274,-163.5 2280,-163.5"/>
<text text-anchor="middle" x="2297" y="-177.8" font-family="Arial" font-size="14.00" fill="#000000">in_port</text>
</g>
<!-- system_ruby_network_out_port&#45;&gt;system_ruby_dir_cntrl0_responseToDir_in_port -->
<g id="edge15" class="edge">
<title>system_ruby_network_out_port&#45;&gt;system_ruby_dir_cntrl0_responseToDir_in_port</title>
<path fill="none" stroke="black" d="M1414.4,-308.3C1420.2,-304.9 1426.6,-301.82 1433,-300 1454.99,-293.73 2237.28,-305.12 2256,-292 2282.45,-273.47 2291.86,-235.69 2295.19,-209.73"/>
<polygon fill="black" stroke="black" points="2298.68,-210.07 2296.25,-199.76 2291.71,-209.33 2298.68,-210.07"/>
</g>
<!-- system_ruby_l1_cntrl0_sequencer_in_ports -->
<g id="node6" class="node">
<title>system_ruby_l1_cntrl0_sequencer_in_ports</title>
<path fill="#6a6863" stroke="#000000" d="M826.5,-163.5C826.5,-163.5 867.5,-163.5 867.5,-163.5 873.5,-163.5 879.5,-169.5 879.5,-175.5 879.5,-175.5 879.5,-187.5 879.5,-187.5 879.5,-193.5 873.5,-199.5 867.5,-199.5 867.5,-199.5 826.5,-199.5 826.5,-199.5 820.5,-199.5 814.5,-193.5 814.5,-187.5 814.5,-187.5 814.5,-175.5 814.5,-175.5 814.5,-169.5 820.5,-163.5 826.5,-163.5"/>
<text text-anchor="middle" x="847" y="-177.8" font-family="Arial" font-size="14.00" fill="#000000">in_ports</text>
</g>
<!-- system_ruby_l1_cntrl0_sequencer_in_ports&#45;&gt;system_cpu_icache_port -->
<g id="edge16" class="edge">
<title>system_ruby_l1_cntrl0_sequencer_in_ports&#45;&gt;system_cpu_icache_port</title>
<path fill="none" stroke="black" d="M857.92,-153.91C868.42,-128.37 883.97,-90.52 892.93,-68.7"/>
<polygon fill="black" stroke="black" points="854.6,-152.79 854.04,-163.37 861.08,-155.45 854.6,-152.79"/>
</g>
<!-- system_ruby_l1_cntrl0_sequencer_in_ports&#45;&gt;system_cpu_dcache_port -->
<g id="edge17" class="edge">
<title>system_ruby_l1_cntrl0_sequencer_in_ports&#45;&gt;system_cpu_dcache_port</title>
<path fill="none" stroke="black" d="M835.87,-153.91C825.18,-128.37 809.33,-90.52 800.2,-68.7"/>
<polygon fill="black" stroke="black" points="832.74,-155.5 839.83,-163.37 839.2,-152.79 832.74,-155.5"/>
</g>
<!-- system_ruby_dir_cntrl0_memory_out_port -->
<g id="node17" class="node">
<title>system_ruby_dir_cntrl0_memory_out_port</title>
<path fill="#7f7c77" stroke="#000000" d="M2016,-163.5C2016,-163.5 2116,-163.5 2116,-163.5 2122,-163.5 2128,-169.5 2128,-175.5 2128,-175.5 2128,-187.5 2128,-187.5 2128,-193.5 2122,-199.5 2116,-199.5 2116,-199.5 2016,-199.5 2016,-199.5 2010,-199.5 2004,-193.5 2004,-187.5 2004,-187.5 2004,-175.5 2004,-175.5 2004,-169.5 2010,-163.5 2016,-163.5"/>
<text text-anchor="middle" x="2066" y="-177.8" font-family="Arial" font-size="14.00" fill="#000000">memory_out_port</text>
</g>
<!-- system_mem_ctrls_port -->
<g id="node23" class="node">
<title>system_mem_ctrls_port</title>
<path fill="#94918b" stroke="#000000" d="M2051,-32.5C2051,-32.5 2081,-32.5 2081,-32.5 2087,-32.5 2093,-38.5 2093,-44.5 2093,-44.5 2093,-56.5 2093,-56.5 2093,-62.5 2087,-68.5 2081,-68.5 2081,-68.5 2051,-68.5 2051,-68.5 2045,-68.5 2039,-62.5 2039,-56.5 2039,-56.5 2039,-44.5 2039,-44.5 2039,-38.5 2045,-32.5 2051,-32.5"/>
<text text-anchor="middle" x="2066" y="-46.8" font-family="Arial" font-size="14.00" fill="#000000">port</text>
</g>
<!-- system_ruby_dir_cntrl0_memory_out_port&#45;&gt;system_mem_ctrls_port -->
<g id="edge18" class="edge">
<title>system_ruby_dir_cntrl0_memory_out_port&#45;&gt;system_mem_ctrls_port</title>
<path fill="none" stroke="black" d="M2066,-163.37C2066,-141.78 2066,-104.41 2066,-78.85"/>
<polygon fill="black" stroke="black" points="2069.5,-78.7 2066,-68.7 2062.5,-78.7 2069.5,-78.7"/>
</g>
</g>
</svg>
